M48
; DRILL file {KiCad (6.0.7)} date Thu Dec  8 14:28:37 2022
; FORMAT={-:-/ absolute / metric / decimal}
; #@! TF.CreationDate,2022-12-08T14:28:37+01:00
; #@! TF.GenerationSoftware,Kicad,Pcbnew,(6.0.7)
; #@! TF.FileFunction,Plated,1,2,PTH
FMAT,2
METRIC
; #@! TA.AperFunction,Plated,PTH,ComponentDrill
T1C1.000
%
G90
G05
T1
X172.212Y-69.088
X172.212Y-74.168
X172.212Y-79.756
X172.212Y-84.836
X172.212Y-89.916
X174.752Y-69.088
X174.752Y-74.168
X174.752Y-79.756
X174.752Y-84.836
X174.752Y-89.916
X180.091Y-111.76
X180.34Y-66.04
X182.631Y-111.76
X182.88Y-66.04
X182.88Y-71.12
X182.88Y-78.74
X182.88Y-91.44
X182.88Y-93.98
X182.88Y-96.52
X182.88Y-99.06
X182.88Y-101.6
X182.88Y-116.84
X192.024Y-66.05
X192.024Y-68.59
X192.024Y-71.13
X192.024Y-73.67
X192.024Y-76.21
X192.024Y-78.75
X192.024Y-81.29
X192.024Y-83.83
X192.024Y-86.37
X192.024Y-88.91
X192.024Y-91.45
X192.024Y-93.99
X192.024Y-96.53
X192.024Y-99.07
X192.024Y-101.61
X192.024Y-104.15
X192.024Y-106.69
X192.024Y-109.23
X192.024Y-111.77
X219.456Y-66.04
X219.456Y-68.58
X219.456Y-71.12
X219.456Y-73.66
X219.456Y-76.2
X219.456Y-78.74
X219.456Y-81.28
X219.456Y-83.82
X219.456Y-86.36
X219.456Y-88.9
X219.456Y-91.44
X219.456Y-93.98
X219.456Y-96.52
X219.456Y-99.06
X219.456Y-101.6
X219.456Y-104.14
X219.456Y-106.68
X219.456Y-109.22
X219.456Y-111.76
T0
M30
