%TF.GenerationSoftware,KiCad,Pcbnew,(6.0.7)*%
%TF.CreationDate,2022-12-08T14:28:46+01:00*%
%TF.ProjectId,_autosave-ExoTool,5f617574-6f73-4617-9665-2d45786f546f,rev?*%
%TF.SameCoordinates,Original*%
%TF.FileFunction,Copper,L2,Bot*%
%TF.FilePolarity,Positive*%
%FSLAX46Y46*%
G04 Gerber Fmt 4.6, Leading zero omitted, Abs format (unit mm)*
G04 Created by KiCad (PCBNEW (6.0.7)) date 2022-12-08 14:28:46*
%MOMM*%
%LPD*%
G01*
G04 APERTURE LIST*
%TA.AperFunction,ComponentPad*%
%ADD10R,1.700000X1.700000*%
%TD*%
%TA.AperFunction,ComponentPad*%
%ADD11O,1.700000X1.700000*%
%TD*%
%TA.AperFunction,Conductor*%
%ADD12C,1.200000*%
%TD*%
G04 APERTURE END LIST*
D10*
%TO.P,J6,1,Pin_1*%
%TO.N,P1*%
X182880000Y-91440000D03*
D11*
%TO.P,J6,2,Pin_2*%
%TO.N,P2*%
X182880000Y-93980000D03*
%TO.P,J6,3,Pin_3*%
%TO.N,P3*%
X182880000Y-96520000D03*
%TO.P,J6,4,Pin_4*%
%TO.N,P4*%
X182880000Y-99060000D03*
%TO.P,J6,5,Pin_5*%
%TO.N,P5*%
X182880000Y-101600000D03*
%TD*%
D10*
%TO.P,J7,1,Pin_1*%
%TO.N,Vin*%
X172212000Y-79756000D03*
D11*
%TO.P,J7,2,Pin_2*%
%TO.N,GND*%
X174752000Y-79756000D03*
%TD*%
D10*
%TO.P,J11,1,Pin_1*%
%TO.N,Vin*%
X172212000Y-69088000D03*
D11*
%TO.P,J11,2,Pin_2*%
%TO.N,GND*%
X174752000Y-69088000D03*
%TD*%
D10*
%TO.P,J1,1,Pin_1*%
%TO.N,unconnected-(J1-Pad1)*%
X219456000Y-66040000D03*
D11*
%TO.P,J1,2,Pin_2*%
%TO.N,unconnected-(J1-Pad2)*%
X219456000Y-68580000D03*
%TO.P,J1,3,Pin_3*%
%TO.N,unconnected-(J1-Pad3)*%
X219456000Y-71120000D03*
%TO.P,J1,4,Pin_4*%
%TO.N,unconnected-(J1-Pad4)*%
X219456000Y-73660000D03*
%TO.P,J1,5,Pin_5*%
%TO.N,unconnected-(J1-Pad5)*%
X219456000Y-76200000D03*
%TO.P,J1,6,Pin_6*%
%TO.N,unconnected-(J1-Pad6)*%
X219456000Y-78740000D03*
%TO.P,J1,7,Pin_7*%
%TO.N,unconnected-(J1-Pad7)*%
X219456000Y-81280000D03*
%TO.P,J1,8,Pin_8*%
%TO.N,unconnected-(J1-Pad8)*%
X219456000Y-83820000D03*
%TO.P,J1,9,Pin_9*%
%TO.N,unconnected-(J1-Pad9)*%
X219456000Y-86360000D03*
%TO.P,J1,10,Pin_10*%
%TO.N,unconnected-(J1-Pad10)*%
X219456000Y-88900000D03*
%TO.P,J1,11,Pin_11*%
%TO.N,unconnected-(J1-Pad11)*%
X219456000Y-91440000D03*
%TO.P,J1,12,Pin_12*%
%TO.N,unconnected-(J1-Pad12)*%
X219456000Y-93980000D03*
%TO.P,J1,13,Pin_13*%
%TO.N,unconnected-(J1-Pad13)*%
X219456000Y-96520000D03*
%TO.P,J1,14,Pin_14*%
%TO.N,unconnected-(J1-Pad14)*%
X219456000Y-99060000D03*
%TO.P,J1,15,Pin_15*%
%TO.N,unconnected-(J1-Pad15)*%
X219456000Y-101600000D03*
%TO.P,J1,16,Pin_16*%
%TO.N,unconnected-(J1-Pad16)*%
X219456000Y-104140000D03*
%TO.P,J1,17,Pin_17*%
%TO.N,unconnected-(J1-Pad17)*%
X219456000Y-106680000D03*
%TO.P,J1,18,Pin_18*%
%TO.N,unconnected-(J1-Pad18)*%
X219456000Y-109220000D03*
%TO.P,J1,19,Pin_19*%
%TO.N,unconnected-(J1-Pad19)*%
X219456000Y-111760000D03*
%TD*%
D10*
%TO.P,J13,1,Pin_1*%
%TO.N,VOut*%
X182880000Y-66040000D03*
D11*
%TO.P,J13,2,Pin_2*%
%TO.N,Vin*%
X180340000Y-66040000D03*
%TD*%
D10*
%TO.P,J8,1,Pin_1*%
%TO.N,Vin*%
X172212000Y-74168000D03*
D11*
%TO.P,J8,2,Pin_2*%
%TO.N,GND*%
X174752000Y-74168000D03*
%TD*%
D10*
%TO.P,J5,1,Pin_1*%
%TO.N,GND*%
X182880000Y-78740000D03*
%TD*%
%TO.P,J3,1,Pin_1*%
%TO.N,VOut*%
X182880000Y-71120000D03*
%TD*%
%TO.P,J2,1,Pin_1*%
%TO.N,VOut*%
X192024000Y-66050000D03*
D11*
%TO.P,J2,2,Pin_2*%
%TO.N,unconnected-(J2-Pad2)*%
X192024000Y-68590000D03*
%TO.P,J2,3,Pin_3*%
%TO.N,unconnected-(J2-Pad3)*%
X192024000Y-71130000D03*
%TO.P,J2,4,Pin_4*%
%TO.N,unconnected-(J2-Pad4)*%
X192024000Y-73670000D03*
%TO.P,J2,5,Pin_5*%
%TO.N,unconnected-(J2-Pad5)*%
X192024000Y-76210000D03*
%TO.P,J2,6,Pin_6*%
%TO.N,GND*%
X192024000Y-78750000D03*
%TO.P,J2,7,Pin_7*%
%TO.N,unconnected-(J2-Pad7)*%
X192024000Y-81290000D03*
%TO.P,J2,8,Pin_8*%
%TO.N,unconnected-(J2-Pad8)*%
X192024000Y-83830000D03*
%TO.P,J2,9,Pin_9*%
%TO.N,unconnected-(J2-Pad9)*%
X192024000Y-86370000D03*
%TO.P,J2,10,Pin_10*%
%TO.N,unconnected-(J2-Pad10)*%
X192024000Y-88910000D03*
%TO.P,J2,11,Pin_11*%
%TO.N,P1*%
X192024000Y-91450000D03*
%TO.P,J2,12,Pin_12*%
%TO.N,P2*%
X192024000Y-93990000D03*
%TO.P,J2,13,Pin_13*%
%TO.N,P3*%
X192024000Y-96530000D03*
%TO.P,J2,14,Pin_14*%
%TO.N,P4*%
X192024000Y-99070000D03*
%TO.P,J2,15,Pin_15*%
%TO.N,P5*%
X192024000Y-101610000D03*
%TO.P,J2,16,Pin_16*%
%TO.N,unconnected-(J2-Pad16)*%
X192024000Y-104150000D03*
%TO.P,J2,17,Pin_17*%
%TO.N,unconnected-(J2-Pad17)*%
X192024000Y-106690000D03*
%TO.P,J2,18,Pin_18*%
%TO.N,unconnected-(J2-Pad18)*%
X192024000Y-109230000D03*
%TO.P,J2,19,Pin_19*%
%TO.N,VOut*%
X192024000Y-111770000D03*
%TD*%
D10*
%TO.P,J10,1,Pin_1*%
%TO.N,Vin*%
X172212000Y-89916000D03*
D11*
%TO.P,J10,2,Pin_2*%
%TO.N,GND*%
X174752000Y-89916000D03*
%TD*%
D10*
%TO.P,J4,1,Pin_1*%
%TO.N,VOut*%
X182880000Y-116840000D03*
%TD*%
%TO.P,J12,1,Pin_1*%
%TO.N,VOut*%
X182631000Y-111760000D03*
D11*
%TO.P,J12,2,Pin_2*%
%TO.N,Vin*%
X180091000Y-111760000D03*
%TD*%
D10*
%TO.P,J9,1,Pin_1*%
%TO.N,Vin*%
X172212000Y-84836000D03*
D11*
%TO.P,J9,2,Pin_2*%
%TO.N,GND*%
X174752000Y-84836000D03*
%TD*%
D12*
%TO.N,VOut*%
X182880000Y-116840000D02*
X182880000Y-112009000D01*
X182641000Y-111770000D02*
X182631000Y-111760000D01*
X192024000Y-66050000D02*
X182890000Y-66050000D01*
X182890000Y-66050000D02*
X182880000Y-66040000D01*
X182880000Y-66040000D02*
X182880000Y-71120000D01*
X182880000Y-112009000D02*
X182631000Y-111760000D01*
X192024000Y-111770000D02*
X182641000Y-111770000D01*
%TO.N,GND*%
X181864000Y-86868000D02*
X181864000Y-82296000D01*
X174752000Y-74168000D02*
X174752000Y-79756000D01*
X174752000Y-79756000D02*
X174752000Y-84836000D01*
X182890000Y-78750000D02*
X182880000Y-78740000D01*
X174752000Y-69088000D02*
X174752000Y-74168000D01*
X192024000Y-78750000D02*
X186426000Y-78750000D01*
X186426000Y-78750000D02*
X182890000Y-78750000D01*
X174752000Y-89916000D02*
X178816000Y-89916000D01*
X181864000Y-82296000D02*
X185410000Y-78750000D01*
X174752000Y-84836000D02*
X174752000Y-89916000D01*
X185410000Y-78750000D02*
X186426000Y-78750000D01*
X178816000Y-89916000D02*
X181864000Y-86868000D01*
%TO.N,P1*%
X192024000Y-91450000D02*
X182890000Y-91450000D01*
X182890000Y-91450000D02*
X182880000Y-91440000D01*
%TO.N,P2*%
X182890000Y-93990000D02*
X182880000Y-93980000D01*
X192024000Y-93990000D02*
X182890000Y-93990000D01*
%TO.N,P3*%
X192024000Y-96530000D02*
X182890000Y-96530000D01*
X182890000Y-96530000D02*
X182880000Y-96520000D01*
%TO.N,P4*%
X192014000Y-99060000D02*
X192024000Y-99070000D01*
X182880000Y-99060000D02*
X192014000Y-99060000D01*
%TO.N,P5*%
X182890000Y-101610000D02*
X182880000Y-101600000D01*
X192024000Y-101610000D02*
X182890000Y-101610000D01*
%TO.N,Vin*%
X172212000Y-84836000D02*
X172212000Y-89916000D01*
X175466547Y-66040000D02*
X172418547Y-69088000D01*
X172212000Y-69088000D02*
X172212000Y-74168000D01*
X172212000Y-89916000D02*
X172212000Y-103881000D01*
X172418547Y-69088000D02*
X172212000Y-69088000D01*
X172212000Y-103881000D02*
X180091000Y-111760000D01*
X172212000Y-79756000D02*
X172212000Y-84836000D01*
X180340000Y-66040000D02*
X175466547Y-66040000D01*
X172212000Y-74168000D02*
X172212000Y-79756000D01*
%TD*%
M02*
